<?xml version="1.0" encoding="utf-8"?>
<!-- Generator: Adobe Illustrator 16.0.0, SVG Export Plug-In . SVG Version: 6.00 Build 0)  -->
<!DOCTYPE svg PUBLIC "-//W3C//DTD SVG 1.1//EN" "http://www.w3.org/Graphics/SVG/1.1/DTD/svg11.dtd">
<svg version="1.1" id="Layer_1" xmlns="http://www.w3.org/2000/svg" xmlns:xlink="http://www.w3.org/1999/xlink" x="0px" y="0px"
	 width="141.73px" height="141.73px" viewBox="0 0 141.73 141.73" enable-background="new 0 0 141.73 141.73" xml:space="preserve">
<rect x="-0.001" y="-0.001" fill="#DCDDDE" width="141.732" height="141.732"/>
<circle fill="#DCDDDE" stroke="#BCBEC0" stroke-width="2" stroke-miterlimit="10" cx="71.128" cy="70.813" r="21.76"/>
<g>
	<path fill="#F1F2F2" d="M42.915,71.979l-9.94,9.94c-0.615,0.615-1.612,0.615-2.227,0s-0.615-1.612,0-2.227l8.827-8.827
		l-8.827-8.828c-0.615-0.614-0.615-1.611,0-2.226c0.615-0.615,1.612-0.615,2.227,0l9.94,9.94
		C43.529,70.367,43.529,71.364,42.915,71.979z"/>
	<path fill="#F1F2F2" d="M98.815,69.751l9.939-9.94c0.615-0.615,1.613-0.615,2.228,0c0.615,0.614,0.615,1.611,0,2.226l-8.827,8.828
		l8.827,8.828c0.615,0.614,0.615,1.612,0,2.227c-0.614,0.615-1.612,0.615-2.228,0l-9.939-9.941
		C98.2,71.363,98.2,70.367,98.815,69.751z"/>
</g>
<g>
	<g>
		<path fill="#F1F2F2" d="M45.625,95.615v-4.372c0-0.271,0.219-0.49,0.489-0.49s0.49,0.22,0.489,0.49l0.001,3.882l3.882,0.001
			c0.271,0,0.489,0.219,0.489,0.489s-0.219,0.489-0.489,0.489h-4.372C45.844,96.104,45.625,95.886,45.625,95.615z"/>
		<path fill="#F1F2F2" d="M42.508,98.731V94.36c0-0.271,0.219-0.49,0.49-0.49c0.271,0,0.489,0.219,0.489,0.49v3.882h3.883
			c0.27,0,0.489,0.219,0.489,0.489s-0.22,0.49-0.49,0.49h-4.371C42.727,99.221,42.508,99.002,42.508,98.731z"/>
		<path fill="#F1F2F2" d="M39.391,101.849v-4.372c0-0.271,0.22-0.49,0.49-0.489c0.271,0,0.489,0.219,0.489,0.489v3.882l3.883,0.001
			c0.271-0.001,0.489,0.219,0.489,0.489s-0.219,0.489-0.489,0.489h-4.372C39.611,102.338,39.392,102.119,39.391,101.849z"/>
		<path fill="#F1F2F2" d="M36.275,104.965v-4.371c0-0.271,0.219-0.49,0.489-0.49s0.49,0.22,0.49,0.49v3.882h3.882
			c0.271,0,0.49,0.219,0.49,0.489s-0.22,0.49-0.49,0.49h-4.372C36.494,105.455,36.275,105.235,36.275,104.965z"/>
		<path fill="#F1F2F2" d="M33.158,108.082v-4.372c0-0.271,0.22-0.49,0.49-0.489c0.271,0,0.489,0.219,0.489,0.489v3.882l3.883,0.001
			c0.271,0,0.489,0.219,0.489,0.489s-0.219,0.489-0.489,0.489h-4.372C33.377,108.571,33.158,108.353,33.158,108.082z"/>
		<path fill="#F1F2F2" d="M30.042,111.198v-4.371c0-0.271,0.219-0.49,0.489-0.49s0.49,0.22,0.49,0.49v3.882h3.882
			c0.271,0,0.49,0.22,0.489,0.489c0.001,0.271-0.219,0.49-0.489,0.49h-4.372C30.26,111.688,30.042,111.469,30.042,111.198z"/>
		<path fill="#F1F2F2" d="M26.924,114.315v-4.372c0-0.271,0.22-0.49,0.49-0.489c0.271,0,0.489,0.219,0.489,0.489v3.882l3.883,0.001
			c0.271,0,0.489,0.219,0.489,0.489s-0.219,0.49-0.489,0.49h-4.372C27.144,114.805,26.925,114.586,26.924,114.315z"/>
		<path fill="#F1F2F2" d="M23.808,117.433v-4.372c0-0.271,0.219-0.49,0.489-0.49s0.49,0.22,0.489,0.49l0.001,3.882h3.882
			c0.271,0,0.49,0.22,0.49,0.49c0,0.27-0.22,0.489-0.49,0.489h-4.372C24.027,117.922,23.808,117.702,23.808,117.433z"/>
		<path fill="#F1F2F2" d="M20.691,120.549v-4.372c0-0.271,0.22-0.489,0.49-0.489s0.489,0.219,0.489,0.489v3.883h3.883
			c0.271,0,0.489,0.219,0.489,0.489s-0.219,0.489-0.49,0.489h-4.371C20.911,121.038,20.691,120.819,20.691,120.549z"/>
		<path fill="#F1F2F2" d="M17.575,123.666v-4.372c0-0.271,0.219-0.49,0.489-0.49s0.49,0.22,0.489,0.49l0.001,3.882l3.882,0.001
			c0.271-0.001,0.49,0.219,0.489,0.489c0.001,0.27-0.219,0.489-0.489,0.489h-4.372C17.793,124.155,17.575,123.936,17.575,123.666z"
			/>
	</g>
	<g>
		<path fill="#F1F2F2" d="M96.105,46.115v4.372c0,0.271-0.219,0.49-0.49,0.49c-0.27,0-0.49-0.22-0.488-0.49l-0.002-3.882
			l-3.881-0.001c-0.271,0-0.49-0.219-0.49-0.489s0.219-0.489,0.49-0.489h4.371C95.887,45.626,96.105,45.845,96.105,46.115z"/>
		<path fill="#F1F2F2" d="M99.223,42.999v4.371c0,0.271-0.219,0.49-0.49,0.49s-0.49-0.219-0.49-0.49v-3.882h-3.883
			c-0.27,0-0.488-0.219-0.488-0.489s0.219-0.49,0.49-0.49h4.371C99.004,42.51,99.223,42.729,99.223,42.999z"/>
		<path fill="#F1F2F2" d="M102.34,39.882v4.372c0,0.271-0.221,0.49-0.49,0.489c-0.271,0-0.49-0.219-0.49-0.489v-3.882l-3.883-0.001
			c-0.27,0.001-0.488-0.219-0.488-0.489s0.219-0.489,0.488-0.489h4.373C102.119,39.393,102.338,39.611,102.34,39.882z"/>
		<path fill="#F1F2F2" d="M105.455,36.766v4.371c0,0.271-0.219,0.49-0.488,0.49c-0.271,0-0.49-0.22-0.49-0.49v-3.882h-3.883
			c-0.27,0-0.49-0.219-0.49-0.489s0.221-0.49,0.49-0.49h4.373C105.236,36.275,105.455,36.495,105.455,36.766z"/>
		<path fill="#F1F2F2" d="M108.572,33.648v4.372c0,0.271-0.219,0.49-0.49,0.489c-0.27,0-0.488-0.219-0.488-0.489v-3.882
			l-3.883-0.001c-0.271,0-0.49-0.219-0.49-0.489s0.219-0.489,0.49-0.489h4.371C108.354,33.159,108.572,33.378,108.572,33.648z"/>
		<path fill="#F1F2F2" d="M111.689,30.532v4.371c0,0.271-0.219,0.49-0.49,0.49c-0.27,0-0.49-0.22-0.49-0.49v-3.882h-3.881
			c-0.271,0-0.49-0.22-0.49-0.489c0-0.271,0.219-0.49,0.49-0.49h4.371C111.471,30.042,111.689,30.262,111.689,30.532z"/>
		<path fill="#F1F2F2" d="M114.807,27.415v4.372c0,0.271-0.221,0.49-0.49,0.489c-0.271,0-0.49-0.219-0.49-0.489v-3.882l-3.883-0.001
			c-0.27,0-0.488-0.219-0.488-0.489s0.219-0.49,0.488-0.49h4.373C114.586,26.926,114.805,27.145,114.807,27.415z"/>
		<path fill="#F1F2F2" d="M117.922,24.298v4.372c0,0.271-0.219,0.49-0.488,0.49c-0.271,0-0.49-0.22-0.49-0.49v-3.882h-3.883
			c-0.27,0-0.49-0.22-0.49-0.49c0-0.27,0.221-0.489,0.49-0.489h4.373C117.703,23.809,117.922,24.028,117.922,24.298z"/>
		<path fill="#F1F2F2" d="M121.039,21.182v4.372c0,0.271-0.219,0.489-0.49,0.489c-0.27,0-0.488-0.219-0.488-0.489v-3.883h-3.883
			c-0.271,0-0.49-0.219-0.49-0.489s0.219-0.489,0.49-0.489h4.371C120.82,20.692,121.039,20.911,121.039,21.182z"/>
		<path fill="#F1F2F2" d="M124.156,18.064v4.372c0,0.271-0.219,0.49-0.49,0.49c-0.27,0-0.49-0.22-0.488-0.49l-0.002-3.882
			l-3.881-0.001c-0.271,0.001-0.49-0.219-0.49-0.489c0-0.27,0.219-0.489,0.49-0.489h4.371
			C123.938,17.575,124.156,17.795,124.156,18.064z"/>
	</g>
</g>
<g>
	<g>
		<path fill="#F1F2F2" d="M95.615,96.105h-4.372c-0.271,0-0.49-0.219-0.49-0.489s0.22-0.49,0.49-0.489l3.882-0.001l0.001-3.882
			c0-0.271,0.219-0.49,0.489-0.49s0.489,0.219,0.489,0.49v4.372C96.104,95.887,95.886,96.105,95.615,96.105z"/>
		<path fill="#F1F2F2" d="M98.731,99.223H94.36c-0.271,0-0.49-0.219-0.49-0.49c0-0.271,0.219-0.489,0.49-0.489h3.882v-3.884
			c0-0.27,0.219-0.488,0.489-0.488s0.49,0.219,0.49,0.49v4.371C99.221,99.004,99.002,99.223,98.731,99.223z"/>
		<path fill="#F1F2F2" d="M101.849,102.34h-4.372c-0.271,0-0.49-0.22-0.489-0.49c0-0.271,0.219-0.489,0.489-0.489h3.882l0.001-3.884
			c-0.001-0.27,0.219-0.488,0.489-0.488s0.489,0.219,0.489,0.488v4.373C102.338,102.12,102.119,102.339,101.849,102.34z"/>
		<path fill="#F1F2F2" d="M104.965,105.456h-4.371c-0.271,0-0.49-0.219-0.49-0.489s0.22-0.49,0.49-0.49h3.882v-3.882
			c0-0.271,0.219-0.49,0.489-0.49s0.49,0.22,0.49,0.489v4.373C105.455,105.236,105.235,105.456,104.965,105.456z"/>
		<path fill="#F1F2F2" d="M108.082,108.573h-4.372c-0.271,0-0.49-0.22-0.489-0.49c0-0.271,0.219-0.489,0.489-0.489h3.882
			l0.001-3.883c0-0.271,0.219-0.49,0.489-0.49s0.489,0.219,0.489,0.49v4.372C108.571,108.354,108.353,108.573,108.082,108.573z"/>
		<path fill="#F1F2F2" d="M111.198,111.689h-4.371c-0.271,0-0.49-0.219-0.49-0.489s0.22-0.49,0.49-0.49h3.882v-3.882
			c0-0.271,0.22-0.49,0.489-0.49c0.271,0,0.49,0.219,0.49,0.49v4.372C111.688,111.471,111.469,111.689,111.198,111.689z"/>
		<path fill="#F1F2F2" d="M114.315,114.807h-4.372c-0.271,0-0.49-0.22-0.489-0.49c0-0.271,0.219-0.489,0.489-0.489h3.882
			l0.001-3.883c0-0.271,0.219-0.489,0.489-0.489s0.49,0.219,0.49,0.489v4.372C114.805,114.587,114.586,114.806,114.315,114.807z"/>
		<path fill="#F1F2F2" d="M117.433,117.923h-4.372c-0.271,0-0.49-0.219-0.49-0.489s0.22-0.49,0.49-0.489l3.882-0.001v-3.883
			c0-0.27,0.22-0.49,0.49-0.49c0.27,0,0.489,0.221,0.489,0.49v4.373C117.922,117.704,117.702,117.923,117.433,117.923z"/>
		<path fill="#F1F2F2" d="M120.549,121.04h-4.372c-0.271,0-0.489-0.22-0.489-0.49s0.219-0.489,0.489-0.489h3.883v-3.883
			c0-0.271,0.219-0.489,0.489-0.489s0.489,0.219,0.489,0.49v4.371C121.038,120.82,120.819,121.04,120.549,121.04z"/>
		<path fill="#F1F2F2" d="M123.666,124.156h-4.372c-0.271,0-0.49-0.219-0.49-0.489s0.22-0.49,0.49-0.489l3.882-0.001l0.001-3.882
			c-0.001-0.271,0.219-0.49,0.489-0.489c0.27-0.001,0.489,0.219,0.489,0.489v4.372C124.155,123.938,123.936,124.156,123.666,124.156
			z"/>
	</g>
	<g>
		<path fill="#F1F2F2" d="M46.115,45.625h4.372c0.271,0,0.49,0.219,0.49,0.49c0,0.27-0.22,0.49-0.49,0.488l-3.882,0.002
			l-0.001,3.881c0,0.271-0.219,0.49-0.489,0.49s-0.489-0.219-0.489-0.49v-4.371C45.626,45.844,45.845,45.625,46.115,45.625z"/>
		<path fill="#F1F2F2" d="M42.999,42.508h4.371c0.271,0,0.49,0.219,0.49,0.49s-0.219,0.49-0.49,0.49h-3.882v3.883
			c0,0.27-0.219,0.488-0.489,0.488s-0.49-0.219-0.49-0.49v-4.371C42.51,42.727,42.729,42.508,42.999,42.508z"/>
		<path fill="#F1F2F2" d="M39.882,39.391h4.372c0.271,0,0.49,0.221,0.489,0.49c0,0.271-0.219,0.49-0.489,0.49h-3.882l-0.001,3.883
			c0.001,0.27-0.219,0.488-0.489,0.488s-0.489-0.219-0.489-0.488v-4.373C39.393,39.611,39.611,39.393,39.882,39.391z"/>
		<path fill="#F1F2F2" d="M36.766,36.275h4.371c0.271,0,0.49,0.219,0.49,0.488c0,0.271-0.22,0.49-0.49,0.49h-3.882v3.883
			c0,0.27-0.219,0.49-0.489,0.49s-0.49-0.221-0.49-0.49v-4.373C36.275,36.494,36.495,36.275,36.766,36.275z"/>
		<path fill="#F1F2F2" d="M33.648,33.158h4.372c0.271,0,0.49,0.219,0.489,0.49c0,0.27-0.219,0.488-0.489,0.488h-3.882l-0.001,3.883
			c0,0.271-0.219,0.49-0.489,0.49s-0.489-0.219-0.489-0.49v-4.371C33.159,33.377,33.378,33.158,33.648,33.158z"/>
		<path fill="#F1F2F2" d="M30.532,30.041h4.371c0.271,0,0.49,0.219,0.49,0.49c0,0.27-0.22,0.49-0.49,0.49h-3.882v3.881
			c0,0.271-0.22,0.49-0.489,0.49c-0.271,0-0.49-0.219-0.49-0.49v-4.371C30.042,30.26,30.262,30.041,30.532,30.041z"/>
		<path fill="#F1F2F2" d="M27.415,26.924h4.372c0.271,0,0.49,0.221,0.489,0.49c0,0.271-0.219,0.49-0.489,0.49h-3.882l-0.001,3.883
			c0,0.27-0.219,0.488-0.489,0.488s-0.49-0.219-0.49-0.488v-4.373C26.926,27.145,27.145,26.926,27.415,26.924z"/>
		<path fill="#F1F2F2" d="M24.298,23.809h4.372c0.271,0,0.49,0.219,0.49,0.488c0,0.271-0.22,0.49-0.49,0.49h-3.882v3.883
			c0,0.27-0.22,0.49-0.49,0.49c-0.27,0-0.489-0.221-0.489-0.49v-4.373C23.809,24.027,24.028,23.809,24.298,23.809z"/>
		<path fill="#F1F2F2" d="M21.182,20.691h4.372c0.271,0,0.489,0.219,0.489,0.49c0,0.27-0.219,0.488-0.489,0.488h-3.883v3.883
			c0,0.271-0.219,0.49-0.489,0.49s-0.489-0.219-0.489-0.49v-4.371C20.692,20.91,20.911,20.691,21.182,20.691z"/>
		<path fill="#F1F2F2" d="M18.064,17.574h4.372c0.271,0,0.49,0.219,0.49,0.49c0,0.27-0.22,0.49-0.49,0.488l-3.882,0.002
			l-0.001,3.881c0.001,0.271-0.219,0.49-0.489,0.49c-0.27,0-0.489-0.219-0.489-0.49v-4.371
			C17.575,17.793,17.795,17.574,18.064,17.574z"/>
	</g>
</g>
<g>
	<path fill="#F1F2F2" d="M69.752,42.913l-9.941-9.941c-0.614-0.615-0.614-1.611,0-2.226c0.615-0.615,1.612-0.615,2.227,0
		l8.828,8.827l8.827-8.827c0.615-0.615,1.612-0.615,2.227,0c0.615,0.615,0.615,1.611,0,2.226l-9.94,9.941
		C71.363,43.528,70.367,43.528,69.752,42.913z"/>
	<path fill="#F1F2F2" d="M71.979,98.817l9.941,9.94c0.614,0.615,0.614,1.613,0,2.227c-0.615,0.615-1.612,0.615-2.228,0l-8.827-8.826
		l-8.828,8.826c-0.614,0.615-1.611,0.615-2.227,0c-0.614-0.613-0.614-1.611,0-2.227l9.941-9.94
		C70.367,98.202,71.363,98.202,71.979,98.817z"/>
</g>
</svg>
