<?xml version="1.0" encoding="utf-8"?>
<!-- Generator: Adobe Illustrator 16.0.0, SVG Export Plug-In . SVG Version: 6.00 Build 0)  -->
<!DOCTYPE svg PUBLIC "-//W3C//DTD SVG 1.1//EN" "http://www.w3.org/Graphics/SVG/1.1/DTD/svg11.dtd">
<svg version="1.1" id="Layer_1" xmlns="http://www.w3.org/2000/svg" xmlns:xlink="http://www.w3.org/1999/xlink" x="0px" y="0px"
	 width="141.73px" height="141.73px" viewBox="0 0 141.73 141.73" enable-background="new 0 0 141.73 141.73" xml:space="preserve">
<g>
	<g>
		<g>
			<path fill="#939598" d="M47.909,68.443c0-1.894,0.521-3.26,1.558-4.101c1.036-0.84,2.222-1.26,3.552-1.26
				c-1.459,1.601-2.188,3.387-2.188,5.359c0,1.6,0.521,2.934,1.565,4c1.044,1.063,2.554,1.6,4.53,1.6s3.715-0.52,5.215-1.559
				c1.499-1.041,2.249-2.47,2.249-4.281c0-1.252-0.423-2.379-1.268-3.379c-0.844-1-1.867-1.861-3.071-2.58l-3.573-2.121
				c-1.181-0.719-2.183-1.592-3.009-2.62c-0.826-1.024-1.239-2.192-1.239-3.5c0-1.546,0.453-3.126,1.357-4.74
				c0.906-1.611,2.261-3.006,4.061-4.18c1.799-1.173,3.792-1.76,5.979-1.76c2.804,0,4.203,1.333,4.203,4
				c0,1.333-0.319,2.827-0.96,4.479c-0.641,1.654-1.348,3.096-2.12,4.32c-0.88-0.187-1.318-0.76-1.318-1.72
				c0-0.746,0.394-2.142,1.181-4.182c0.785-2.04,1.18-3.444,1.18-4.22c0-1.146-0.748-1.72-2.244-1.72c-2.354,0-4.418,1-6.186,3
				s-2.65,3.934-2.65,5.8c0,1.094,0.415,2.074,1.245,2.939s1.833,1.619,3.013,2.261l3.494,2.041c1.18,0.69,2.183,1.619,3.01,2.779
				c0.824,1.157,1.238,2.485,1.238,3.979c0,2.588-1.068,4.654-3.211,6.201c-2.14,1.545-4.561,2.317-7.263,2.317
				c-2.338,0-4.311-0.618-5.917-1.858C48.713,72.499,47.909,70.738,47.909,68.443z"/>
			<path fill="#939598" d="M70.669,75.598c0.373-1.438,0.906-3.293,1.603-5.557l2.961-9.727l3.938-12.946
				c0.188-0.668,0.28-1.216,0.28-1.646c0-0.613-0.201-0.922-0.602-0.922c-1.205,0-2.283,0.82-3.234,2.46
				c-0.951,1.642-1.426,3.194-1.426,4.66c0,0.534,0.064,1,0.199,1.4c-1.602,0-2.399-0.76-2.399-2.28c0-1.76,0.925-3.486,2.774-5.18
				c1.849-1.694,3.586-2.54,5.209-2.54c0.506,0,0.965,0.146,1.379,0.438c0.412,0.293,0.771,0.769,1.08,1.42
				c0.307,0.654,0.564,1.293,0.777,1.922c0.213,0.627,0.414,1.507,0.602,2.64c0.188,1.134,0.325,2.08,0.42,2.84
				c0.094,0.76,0.221,1.834,0.381,3.221c0.561,4.987,1.146,9.468,1.76,13.44c0.48-3.254,1.547-7.76,3.201-13.521
				c1.652-5.761,2.732-9.239,3.238-10.438c0.188-0.426,0.521-0.86,1-1.3c0.479-0.44,0.984-0.66,1.521-0.66
				c-1.547,4.104-3.254,9.787-5.121,17.04c-1.866,7.254-2.813,12.334-2.84,15.238c-0.854,0-1.533-0.244-2.039-0.738
				c-0.508-0.494-0.867-1.326-1.08-2.5c-0.721-3.787-1.934-11.724-3.641-23.806c-3.571,12.829-5.823,20.456-6.756,22.882
				c-0.873,2.428-1.735,3.784-2.586,4.08C71.082,75.572,70.884,75.598,70.669,75.598z"/>
		</g>
		<g>
			<path fill="#FFFFFF" stroke="#000000" stroke-width="0.5" d="M46.399,67.174c0-1.893,0.519-3.26,1.557-4.1
				c1.037-0.84,2.223-1.26,3.552-1.26c-1.46,1.6-2.188,3.387-2.188,5.358c0,1.603,0.521,2.937,1.564,4
				c1.045,1.066,2.555,1.603,4.53,1.603c1.977,0,3.714-0.521,5.214-1.562c1.499-1.041,2.249-2.467,2.249-4.28
				c0-1.253-0.422-2.38-1.266-3.38s-1.867-1.858-3.072-2.58l-3.573-2.119c-1.18-0.722-2.182-1.595-3.009-2.62
				c-0.827-1.026-1.239-2.193-1.239-3.5c0-1.546,0.452-3.126,1.358-4.74c0.906-1.613,2.259-3.006,4.061-4.18
				c1.799-1.175,3.792-1.762,5.979-1.762c2.802,0,4.203,1.333,4.203,4c0,1.333-0.32,2.827-0.96,4.48
				c-0.642,1.654-1.349,3.094-2.12,4.32c-0.88-0.188-1.32-0.762-1.32-1.722c0-0.746,0.396-2.14,1.183-4.18
				c0.784-2.04,1.18-3.446,1.18-4.22c0-1.146-0.748-1.722-2.244-1.722c-2.354,0-4.418,1-6.186,3c-1.769,2-2.65,3.936-2.65,5.802
				c0,1.094,0.415,2.072,1.245,2.938c0.83,0.867,1.833,1.621,3.012,2.261l3.495,2.04c1.178,0.694,2.182,1.62,3.008,2.78
				s1.24,2.486,1.24,3.98c0,2.586-1.07,4.651-3.211,6.198c-2.14,1.545-4.561,2.318-7.263,2.318c-2.338,0-4.312-0.619-5.917-1.859
				C47.201,71.234,46.399,69.469,46.399,67.174z"/>
			<path fill="#FFFFFF" stroke="#000000" stroke-width="0.5" d="M69.159,74.33c0.373-1.439,0.906-3.291,1.602-5.555l2.962-9.729
				l3.938-12.944c0.188-0.668,0.28-1.217,0.28-1.646c0-0.615-0.201-0.922-0.604-0.922c-1.204,0-2.281,0.82-3.232,2.46
				s-1.426,3.194-1.426,4.66c0,0.534,0.064,1,0.197,1.398c-1.6,0-2.397-0.76-2.397-2.278c0-1.762,0.925-3.486,2.772-5.182
				c1.851-1.692,3.586-2.54,5.209-2.54c0.507,0,0.966,0.146,1.38,0.44c0.412,0.293,0.772,0.767,1.079,1.42
				c0.309,0.654,0.566,1.293,0.779,1.92c0.214,0.627,0.414,1.507,0.602,2.64c0.188,1.136,0.325,2.08,0.421,2.842
				c0.093,0.76,0.22,1.834,0.38,3.221c0.561,4.986,1.146,9.466,1.76,13.438c0.479-3.254,1.547-7.76,3.201-13.52
				c1.65-5.761,2.73-9.241,3.238-10.44c0.188-0.426,0.521-0.858,1-1.3c0.479-0.438,0.985-0.66,1.521-0.66
				c-1.547,4.106-3.254,9.787-5.121,17.04c-1.866,7.253-2.813,12.333-2.84,15.24c-0.854,0-1.533-0.246-2.039-0.74
				c-0.508-0.494-0.867-1.325-1.08-2.5c-0.721-3.787-1.934-11.723-3.641-23.804c-3.57,12.828-5.822,20.455-6.757,22.88
				c-0.872,2.428-1.734,3.787-2.586,4.08C69.572,74.304,69.373,74.33,69.159,74.33z"/>
		</g>
	</g>
	<g>
		<path d="M42.461,92.084c0-0.836,0.335-1.801,1.004-2.895c0.669-1.096,1.536-2.05,2.603-2.861c1.064-0.814,2.085-1.222,3.061-1.222
			c0.726,0,1.09,0.242,1.09,0.728c0,0.062-0.016,0.166-0.049,0.318c-0.183-0.228-0.496-0.341-0.942-0.341
			c-0.83,0-1.651,0.383-2.466,1.148c-0.813,0.764-1.448,1.609-1.905,2.535c-0.456,0.922-0.684,1.696-0.684,2.316
			c0,0.334,0.077,0.601,0.235,0.797c0.157,0.197,0.378,0.295,0.661,0.295c0.713,0,1.595-0.588,2.648-1.763
			c1.053-1.173,1.962-2.669,2.724-4.488l0.968-2.304l0.941-2.142c0.396-0.893,0.734-1.588,1.016-2.087l0.867-1.588
			c0.331-0.559,0.633-0.962,0.904-1.212c0.273-0.249,0.517-0.373,0.731-0.373c0.132,0,0.248,0.049,0.347,0.146
			c0.101,0.1,0.149,0.224,0.149,0.373c0,0.304-0.297,1.043-0.893,2.222l-1.957,3.719c-0.711,1.32-1.363,2.783-1.958,4.386
			c-0.596,1.602-0.893,2.911-0.893,3.929c0,0.349,0.009,0.594,0.025,0.738c0.016,0.144,0.065,0.27,0.147,0.376
			c0.083,0.104,0.215,0.158,0.397,0.158c0.545,0,1.193-0.314,1.945-0.943c0.751-0.629,1.376-1.436,1.871-2.422l0.297,0.206
			c-0.479,1.152-1.186,2.117-2.118,2.898c-0.935,0.778-1.831,1.169-2.688,1.169c-0.563,0-0.976-0.167-1.239-0.499
			c-0.266-0.333-0.396-0.734-0.396-1.204c0-0.517,0.156-1.327,0.47-2.433c-0.846,1.272-1.723,2.295-2.627,3.069
			c-0.904,0.772-1.723,1.159-2.452,1.159c-0.474,0-0.897-0.162-1.272-0.49C42.648,93.179,42.461,92.706,42.461,92.084z"/>
		<path d="M54.232,91.676c0-1.393,0.694-2.834,2.083-4.318s2.793-2.229,4.215-2.229c1.022,0,1.534,0.463,1.534,1.388
			c0,1.106-0.643,2.082-1.926,2.932c-1.283,0.849-2.682,1.341-4.197,1.478c-0.065,0.258-0.099,0.531-0.099,0.818
			c0,1.272,0.649,1.908,1.949,1.908c1.008,0,2.023-0.386,3.049-1.157c1.023-0.773,1.858-1.728,2.503-2.866l0.298,0.206
			c-0.662,1.341-1.578,2.419-2.751,3.233c-1.174,0.814-2.379,1.221-3.616,1.221c-0.98,0-1.732-0.244-2.256-0.732
			C54.495,93.07,54.232,92.443,54.232,91.676z M56.064,90.493c1.152-0.377,2.258-0.946,3.318-1.703
			c1.061-0.759,1.591-1.569,1.591-2.433c0-0.348-0.173-0.523-0.518-0.523c-0.773,0-1.612,0.497-2.517,1.489
			C57.035,88.316,56.411,89.372,56.064,90.493z"/>
		<path d="M62.336,91.471c0-0.41,0.076-0.754,0.225-1.034c0.15-0.281,0.316-0.47,0.501-0.569c0.185-0.099,0.377-0.186,0.58-0.261
			c0.201-0.076,0.327-0.137,0.376-0.182c1.049-1.062,1.859-2.16,2.434-3.296v-0.272c0-0.516,0.095-0.902,0.285-1.16
			c0.189-0.257,0.416-0.386,0.682-0.386c0.263,0,0.396,0.098,0.396,0.296c0,0.029-0.025,0.152-0.075,0.362
			c-0.049,0.213-0.074,0.426-0.074,0.637c0,0.455,0.215,1.296,0.645,2.523s0.645,2.212,0.645,2.956c0,0.408-0.05,0.779-0.148,1.113
			c1.222-0.196,2.263-1.053,3.122-2.57l0.224,0.228c-0.579,1.563-1.735,2.464-3.47,2.705c-0.512,1.258-1.566,1.887-3.165,1.887
			c-1.102,0-1.907-0.294-2.417-0.886C62.592,92.971,62.336,92.275,62.336,91.471z M63.552,91.471c0,0.576,0.184,1.088,0.553,1.534
			c0.369,0.447,0.855,0.671,1.462,0.671c0.756,0,1.273-0.372,1.554-1.115c-0.657-0.12-1.256-0.359-1.797-0.716
			c-0.542-0.355-0.953-0.746-1.231-1.17C63.731,90.691,63.552,90.956,63.552,91.471z M64.189,89.972
			c0.607,1.196,1.626,1.938,3.055,2.227c0.065-0.395,0.099-0.751,0.099-1.069c0-0.424-0.041-0.871-0.124-1.341
			c-0.082-0.468-0.198-0.988-0.347-1.557c-0.149-0.569-0.248-0.975-0.297-1.217C65.739,88.288,64.944,89.274,64.189,89.972z"/>
		<path d="M71.258,91.994c0-0.591,0.174-1.386,0.521-2.387s0.81-1.917,1.388-2.75s1.133-1.251,1.66-1.251
			c0.363,0,0.546,0.168,0.546,0.501c0,0.184-0.215,0.601-0.645,1.254c-0.429,0.655-0.858,1.396-1.288,2.224
			c-0.43,0.829-0.645,1.555-0.645,2.178c0,0.533,0.095,0.893,0.284,1.084c0.19,0.188,0.5,0.284,0.93,0.284
			c1.288,0,2.561-1.161,3.817-3.486l0.223,0.228c-0.463,1.269-1.145,2.257-2.045,2.967c-0.9,0.711-1.846,1.063-2.838,1.063
			c-0.611,0-1.082-0.178-1.412-0.533C71.423,93.012,71.258,92.554,71.258,91.994z M75.124,82.742c0-0.303,0.198-0.575,0.595-0.816
			c0.396-0.243,0.801-0.365,1.215-0.365c0.545,0,0.817,0.228,0.817,0.683c0,0.304-0.169,0.587-0.509,0.853
			c-0.338,0.265-0.705,0.398-1.102,0.398C75.463,83.494,75.124,83.242,75.124,82.742z"/>
		<path d="M76.858,98.379c0-0.306,0.063-0.594,0.187-0.867s0.335-0.54,0.631-0.8c0.298-0.259,0.559-0.479,0.782-0.662
			c0.223-0.181,0.581-0.396,1.078-0.638l1.04-0.525c0.199-0.107,0.57-0.281,1.115-0.525c0.463-1.072,0.885-2.303,1.264-3.69
			c-1.469,1.897-2.816,2.848-4.039,2.848c-0.578,0-1.033-0.194-1.363-0.583c-0.33-0.39-0.496-0.905-0.496-1.551
			c0-1.012,0.359-1.99,1.078-2.934s1.582-1.683,2.59-2.22c1.01-0.538,1.967-0.807,2.875-0.807c0.893,0,1.338,0.243,1.338,0.728
			c0,0.245-0.098,0.399-0.297,0.46c-0.182-0.23-0.512-0.346-0.99-0.346c-1.223,0-2.359,0.606-3.408,1.822
			c-1.051,1.213-1.574,2.351-1.574,3.413c0,0.752,0.289,1.128,0.868,1.128c0.445,0,1.003-0.283,1.673-0.853
			c0.668-0.568,1.334-1.299,1.994-2.19l0.299-1.223c0.182-0.784,0.602-1.177,1.264-1.177c0.148,0,0.322,0.024,0.52,0.07
			c0,0.409-0.182,1.229-0.545,2.461c-0.363,1.231-0.818,2.481-1.363,3.753c0.859-0.374,1.656-0.894,2.393-1.56
			c0.734-0.665,1.283-1.41,1.648-2.232l0.32,0.229c-0.346,0.915-0.969,1.747-1.871,2.496c-0.9,0.747-1.82,1.324-2.762,1.729
			c-1.67,3.696-3.278,5.544-4.824,5.544c-0.393,0-0.729-0.109-1.006-0.325C76.998,99.135,76.858,98.811,76.858,98.379z
			 M77.627,98.174c0,0.242,0.053,0.437,0.157,0.582s0.246,0.217,0.424,0.217c0.38,0,0.854-0.331,1.425-0.993s1.16-1.663,1.773-3.002
			c-1.208,0.563-2.139,1.088-2.795,1.576C77.955,97.04,77.627,97.58,77.627,98.174z"/>
		<path d="M86.052,93.153c0-0.046,0.146-0.401,0.434-1.069c0.291-0.665,0.584-1.442,0.881-2.328
			c0.299-0.887,0.445-1.617,0.445-2.194c0.314-0.318,0.695-0.477,1.141-0.477c0.447,0,0.67,0.197,0.67,0.592
			c0,0.514-0.266,1.515-0.793,2.999c1.9-2.667,3.619-4.001,5.154-4.001c0.586,0,1.035,0.202,1.346,0.604
			c0.309,0.4,0.463,0.882,0.463,1.441c0,0.5-0.164,1.136-0.494,1.91c-0.332,0.772-0.496,1.333-0.496,1.681
			c0,0.577,0.242,0.864,0.725,0.864c1.023,0,2.182-1.182,3.471-3.547l0.271,0.297c-1.189,2.562-2.613,3.842-4.273,3.842
			c-0.561,0-0.988-0.133-1.285-0.398s-0.445-0.617-0.445-1.058c0-0.302,0.119-0.814,0.359-1.533c0.238-0.72,0.359-1.262,0.359-1.626
			c0-0.742-0.33-1.114-0.992-1.114c-0.396,0-0.82,0.145-1.275,0.434c-0.455,0.287-0.855,0.598-1.201,0.93
			c-0.348,0.335-0.756,0.819-1.229,1.457c-0.471,0.636-0.805,1.105-1.002,1.409l-0.918,1.385
			C86.756,93.652,86.318,93.487,86.052,93.153z"/>
	</g>
</g>
</svg>
