<?xml version="1.0" encoding="UTF-8"?>
<!DOCTYPE svg PUBLIC "-//W3C//DTD SVG 1.1//EN" "http://www.w3.org/Graphics/SVG/1.1/DTD/svg11.dtd">
<!-- Creator: CorelDRAW X7 -->
<svg xmlns="http://www.w3.org/2000/svg" xml:space="preserve" width="2000px" height="1000px" version="1.1" style="shape-rendering:geometricPrecision; text-rendering:geometricPrecision; image-rendering:optimizeQuality; fill-rule:evenodd; clip-rule:evenodd"
viewBox="0 0 2000 1000"
 xmlns:xlink="http://www.w3.org/1999/xlink">
 <defs>
  <style type="text/css">
   <![CDATA[
    .str3 {stroke:#2B2A29;stroke-width:5.90552}
    .str2 {stroke:#2B2A29;stroke-width:2.95276}
    .str1 {stroke:#2B2A29;stroke-width:2.36221}
    .str4 {stroke:#1F1B20;stroke-width:2.36221}
    .str0 {stroke:#2B2A29;stroke-width:2.36221;stroke-dasharray:2.362207 7.086620}
    .fil3 {fill:none}
    .fil0 {fill:#F8F8F8}
    .fil2 {fill:#1F1B20}
    .fil1 {fill:#1F1B20;fill-rule:nonzero}
   ]]>
  </style>
    <clipPath id="id0">
     <path d="M431 130l427 0 0 427 -427 0 0 -427z"/>
    </clipPath>
    <clipPath id="id1">
     <path d="M1 313l509 0 0 509 -509 0 0 -509z"/>
    </clipPath>
    <clipPath id="id2">
     <path d="M1187 170l798 0 0 798 -798 0 0 -798z"/>
    </clipPath>
    <clipPath id="id3">
     <path d="M820 269l426 0 0 427 -426 0 0 -427z"/>
    </clipPath>
 </defs>
 <g id="Layer_x0020_1">
  <metadata id="CorelCorpID_0Corel-Layer"/>
  <g id="_985811591424">
   <g style="clip-path:url(#id0)">
    <image x="431" y="130" width="427" height="427" xlink:href="group_of_lamps2_Images\group_of_lamps2_ImgID1.png"/>
   </g>
  </g>
  <circle class="fil0 str0" cx="644" cy="343" r="184"/>
  <g id="_985811589696">
   <g style="clip-path:url(#id1)">
    <image x="1" y="313" width="509" height="509" xlink:href="group_of_lamps2_Images\group_of_lamps2_ImgID2.png"/>
   </g>
  </g>
  <circle class="fil0 str0" cx="256" cy="567" r="220"/>
  <g id="_985811589600">
   <g style="clip-path:url(#id2)">
    <image x="1187" y="170" width="798" height="798" xlink:href="group_of_lamps2_Images\group_of_lamps2_ImgID3.png"/>
   </g>
  </g>
  <circle class="fil0 str0" cx="1586" cy="569" r="346"/>
  <path class="fil1" d="M1722 852l0 -6 -11 0 0 -16 -3 0 0 -16 -2 0 0 -6 -128 -459c2,-1 3,-3 3,-5l31 0 0 2 48 0 0 -7 -48 0 0 2 -31 0c-1,-3 -4,-5 -7,-5 -3,0 -6,2 -7,5l-159 0 0 8c-2,1 -4,3 -4,5 0,1 0,1 1,2 -30,0 -56,4 -56,4l-5 70c0,0 30,6 65,6 36,0 65,-6 65,-6l-4 -70c0,0 -27,-4 -56,-4 0,-1 0,-1 0,-2 0,-2 -1,-4 -3,-5l0 -5 156 0c0,3 3,6 6,6l128 459 0 5 -2 0 0 16 -4 0 0 16 -76 0 0 6 -15 0 0 0 133 0 0 0 -15 0z"/>
  <g id="_985811587264">
   <polygon class="fil2" points="197,442 313,442 371,538 139,538 "/>
   <line class="fil3 str1" x1="255" y1="546" x2="255" y2= "651" />
   <line class="fil3 str2" x1="192" y1="666" x2="316" y2= "666" />
   <line class="fil3 str3" x1="251" y1="658" x2="258" y2= "658" />
  </g>
  <g id="_985811588672">
   <g style="clip-path:url(#id3)">
    <image x="820" y="269" width="427" height="427" xlink:href="group_of_lamps2_Images\group_of_lamps2_ImgID4.png"/>
   </g>
  </g>
  <circle class="fil0 str0" cx="1033" cy="483" r="184"/>
  <g id="_985811617632">
   <polygon class="fil2" points="1066,524 1141,524 1111,450 1095,450 "/>
   <polygon class="fil2" points="922,524 997,524 968,450 951,450 "/>
   <rect class="fil2 str4" x="954" y="430" width="9.76654" height="12.9815"/>
   <rect class="fil2 str4" x="1098" y="430" width="9.76654" height="12.9815"/>
   <line class="fil3 str1" x1="954" y1="418" x2="1107" y2= "418" />
   <line class="fil3 str3" x1="1003" y1="420" x2="1059" y2= "420" />
  </g>
  <g id="_985811615680">
   <polygon class="fil2" points="613,386 676,386 708,464 582,464 "/>
   <line class="fil3 str1" x1="645" y1="368" x2="645" y2= "205" />
   <rect class="fil2 str4" x="633" y="183" width="24.7843" height="16.1457"/>
   <rect class="fil2 str4" x="633" y="378" width="24.7843" height="4.03583"/>
  </g>
 </g>
</svg>
